# xmcd
#
# Track frame offsets:
#	150
#	9822
#	23857
#	35617
#	48522
#	62080
#	74185
#	86967
#	102675
#	112402
#
# Disc length: 1636 seconds
#
# Revision: 0
# Processed by: cddbd v1.5.2PL0 Copyright (c) Steve Scherf et al.
# Submitted via: EasyCDDAExtractor 9.1.0.1
#
DISCID=9506620a
DTITLE=Narrow Way Qu - Jesus Paid It All
DYEAR=1995
DGENRE=Gospel
TTITLE0=I've Been Waiting
TTITLE1=Heaven Is Waiting
TTITLE2=Angels Of God
TTITLE3=Zion's Hill
TTITLE4=Lord, Don't Move That Mountain
TTITLE5=Jesus Paid It All
TTITLE6=What Will You Tell Him
TTITLE7=I've Got A Longing
TTITLE8=Bidding This World Goodbye
TTITLE9=Wonderful Peace
EXTD=
EXTT0=
EXTT1=
EXTT2=
EXTT3=
EXTT4=
EXTT5=
EXTT6=
EXTT7=
EXTT8=
EXTT9=
PLAYORDER=
